<svg width="17" height="17" viewBox="0 0 17 17" fill="none" xmlns="http://www.w3.org/2000/svg">
<path d="M3.21382 0.5L1.24605 2.46777C0.166948 3.54687 -0.0674267 5.22656 0.704057 6.54492C1.56343 8.01953 2.26656 9.1084 5.21089 12.0479C8.15035 14.9922 8.95113 15.3926 10.4013 16.2422C11.7246 17.0137 13.3994 16.7793 14.4736 15.7002L16.4462 13.7324L12.6377 9.92871L11.0898 11.4766C10.9043 11.3936 10.6259 11.2471 10.3037 11.042C9.6396 10.6172 8.78999 9.96777 8.04292 9.21582C7.29097 8.46875 6.55855 7.53613 6.05074 6.78418C5.80171 6.41309 5.60152 6.07617 5.4941 5.85644C5.48921 5.84668 5.48921 5.84668 5.48433 5.83691L7.01753 4.30371L3.21382 0.5ZM3.21382 2.26758L5.24996 4.30371L4.3564 5.20215C4.17085 5.38769 4.15132 5.59277 4.15621 5.70996C4.15621 5.82226 4.17574 5.90039 4.19527 5.97363C4.23921 6.125 4.29781 6.25684 4.37105 6.41309C4.52242 6.71582 4.74214 7.07715 5.01558 7.4873C5.56246 8.29785 6.33394 9.2793 7.15425 10.1045C7.97945 10.9248 8.88765 11.6182 9.63472 12.0918C10.0058 12.3311 10.333 12.5117 10.6113 12.6338C10.7529 12.6973 10.8798 12.7461 11.0312 12.7754C11.1044 12.79 11.1875 12.7998 11.2998 12.79C11.4121 12.7852 11.5878 12.7461 11.7441 12.5898L12.6377 11.6963L14.6787 13.7324L13.5898 14.8213C12.9111 15.5 11.8613 15.6465 11.0312 15.1631C9.5566 14.2988 8.99507 14.0693 6.0898 11.1689C3.18941 8.26367 2.63277 7.37012 1.78316 5.91504C1.29976 5.08496 1.44624 4.03516 2.12496 3.35644L3.21382 2.26758Z" fill="url(#paint0_linear_42_39)"/>
<defs>
<linearGradient id="paint0_linear_42_39" x1="5.51427" y1="-6.24813" x2="22.8046" y2="1.16202" gradientUnits="userSpaceOnUse">
<stop stop-color="#FD636B"/>
<stop offset="1" stop-color="#FFD200"/>
</linearGradient>
</defs>
</svg>
